<svg width="860" height="56" viewBox="0 0 860 56" xmlns="http://www.w3.org/2000/svg">
  <!-- Python -->
  <rect x="0" y="4" width="98" height="32" rx="8" fill="#161b22" stroke="#30363d" stroke-width="1"/>
  <circle cx="16" cy="20" r="5" fill="#3776AB"/>
  <text x="27" y="25" font-family="'Segoe UI',system-ui,sans-serif" font-size="12" font-weight="600" fill="#e6edf3">Python</text>

  <!-- PyTorch -->
  <rect x="106" y="4" width="100" height="32" rx="8" fill="#161b22" stroke="#30363d" stroke-width="1"/>
  <circle cx="122" cy="20" r="5" fill="#EE4C2C"/>
  <text x="133" y="25" font-family="'Segoe UI',system-ui,sans-serif" font-size="12" font-weight="600" fill="#e6edf3">PyTorch</text>

  <!-- TensorFlow -->
  <rect x="214" y="4" width="118" height="32" rx="8" fill="#161b22" stroke="#30363d" stroke-width="1"/>
  <circle cx="230" cy="20" r="5" fill="#FF6F00"/>
  <text x="241" y="25" font-family="'Segoe UI',system-ui,sans-serif" font-size="12" font-weight="600" fill="#e6edf3">TensorFlow</text>

  <!-- HuggingFace -->
  <rect x="340" y="4" width="122" height="32" rx="8" fill="#161b22" stroke="#30363d" stroke-width="1"/>
  <circle cx="356" cy="20" r="5" fill="#FFD21E"/>
  <text x="367" y="25" font-family="'Segoe UI',system-ui,sans-serif" font-size="12" font-weight="600" fill="#e6edf3">HuggingFace</text>

  <!-- LangChain -->
  <rect x="470" y="4" width="114" height="32" rx="8" fill="#161b22" stroke="#30363d" stroke-width="1"/>
  <circle cx="486" cy="20" r="5" fill="#1C3C3C"/>
  <text x="497" y="25" font-family="'Segoe UI',system-ui,sans-serif" font-size="12" font-weight="600" fill="#e6edf3">LangChain</text>

  <!-- scikit-learn -->
  <rect x="592" y="4" width="118" height="32" rx="8" fill="#161b22" stroke="#30363d" stroke-width="1"/>
  <circle cx="608" cy="20" r="5" fill="#F7931E"/>
  <text x="619" y="25" font-family="'Segoe UI',system-ui,sans-serif" font-size="12" font-weight="600" fill="#e6edf3">scikit-learn</text>

  <!-- OpenCV -->
  <rect x="718" y="4" width="98" height="32" rx="8" fill="#161b22" stroke="#30363d" stroke-width="1"/>
  <circle cx="734" cy="20" r="5" fill="#5C3EE8"/>
  <text x="745" y="25" font-family="'Segoe UI',system-ui,sans-serif" font-size="12" font-weight="600" fill="#e6edf3">OpenCV</text>
</svg>
